HIERARCHY
ROOT Hips
{
	OFFSET -3.958830 18.904000 13.208200
	CHANNELS 6 Xposition Yposition Zposition Zrotation Yrotation Xrotation 
	JOINT LHipJoint
	{
		OFFSET 0.000000 0.000000 0.000000
		CHANNELS 3 Zrotation Yrotation Xrotation
		JOINT LeftUpLeg
		{
			OFFSET 1.800000 -1.400000 0.085000
			CHANNELS 3 Zrotation Yrotation Xrotation
			JOINT LeftLeg
			{
				OFFSET 2.215000 -6.000000 0.000000
				CHANNELS 3 Zrotation Yrotation Xrotation
				JOINT LeftFoot
				{
					OFFSET 2.500000 -6.900000 0.000000
					CHANNELS 3 Zrotation Yrotation Xrotation
					JOINT LeftToeBase
					{
						OFFSET 0.200000 -0.500000 1.950000
						CHANNELS 3 Zrotation Yrotation Xrotation
						End Site
						{
							OFFSET 0.000000 0.000000 0.000000
						}
					}
				}
			}
		}
	}
	JOINT RHipJoint
	{
		OFFSET 0.000000 0.000000 0.000000
		CHANNELS 3 Zrotation Yrotation Xrotation
		JOINT RightUpLeg
		{
			OFFSET -1.800000 -1.400000 0.085000
			CHANNELS 3 Zrotation Yrotation Xrotation
			JOINT RightLeg
			{
				OFFSET -2.215000 -6.000000 0.000000
				CHANNELS 3 Zrotation Yrotation Xrotation
				JOINT RightFoot
				{
					OFFSET -2.500000 -6.900000 0.000000
					CHANNELS 3 Zrotation Yrotation Xrotation
					JOINT RightToeBase
					{
						OFFSET -0.200000 -0.500000 1.950000
						CHANNELS 3 Zrotation Yrotation Xrotation
						End Site
						{
							OFFSET 0.000000 0.000000 0.000000
						}
					}
				}
			}
		}
	}
	JOINT LowerBack
	{
		OFFSET 0.000000 0.000000 0.000000
		CHANNELS 3 Zrotation Yrotation Xrotation
		JOINT Spine
		{
			OFFSET -0.087000 1.940000 -0.288900
			CHANNELS 3 Zrotation Yrotation Xrotation
			JOINT Spine1
			{
				OFFSET 0.000000 1.950000 0.060000
				CHANNELS 3 Zrotation Yrotation Xrotation
				JOINT Neck
				{
					OFFSET 0.000000 0.000000 0.000000
					CHANNELS 3 Zrotation Yrotation Xrotation
					JOINT Neck1
					{
						OFFSET 0.000000 1.600000 0.340000
						CHANNELS 3 Zrotation Yrotation Xrotation
						JOINT Head
						{
							OFFSET 0.000000 1.667000 -0.240000
							CHANNELS 3 Zrotation Yrotation Xrotation
							End Site
							{
								OFFSET 0.000000 0.000000 0.000000
							}
						}
					}
				}
				JOINT LeftShoulder
				{
					OFFSET 0.000000 0.000000 0.000000
					CHANNELS 3 Zrotation Yrotation Xrotation
					JOINT LeftArm
					{
						OFFSET 2.700000 1.550000 -0.730000
						CHANNELS 3 Zrotation Yrotation Xrotation
						JOINT LeftForeArm
						{
							OFFSET 5.450000 0.000000 0.000000
							CHANNELS 3 Zrotation Yrotation Xrotation
							JOINT LeftHand
							{
								OFFSET 3.450000 0.000000 0.000000
								CHANNELS 3 Zrotation Yrotation Xrotation
								JOINT LeftHandIndex1
								{
									OFFSET 0.750000 0.000000 0.000000
									CHANNELS 3 Zrotation Yrotation Xrotation
									End Site
									{
										OFFSET 0.000000 0.000000 0.000000
									}
								}
							}
						}
					}
				}
				JOINT RightShoulder
				{
					OFFSET 0.000000 0.000000 0.000000
					CHANNELS 3 Zrotation Yrotation Xrotation
					JOINT RightArm
					{
						OFFSET -2.700000 1.550000 -0.730000
						CHANNELS 3 Zrotation Yrotation Xrotation
						JOINT RightForeArm
						{
							OFFSET -5.450000 0.000000 0.000000
							CHANNELS 3 Zrotation Yrotation Xrotation
							JOINT RightHand
							{
								OFFSET -3.450000 0.000000 0.000000
								CHANNELS 3 Zrotation Yrotation Xrotation
								JOINT RightHandIndex1
								{
									OFFSET -0.750000 0.000000 0.000000
									CHANNELS 3 Zrotation Yrotation Xrotation
									End Site
									{
										OFFSET 0.000000 0.000000 0.000000
									}
								}
							}
						}
					}
				}
			}
		}
	}
}
MOTION
Frames: 13
Frame Time: 0.016667
-0.855940 18.684660 2.730720 4.167152 27.210131 -2.063448 -15.283228 14.174424 2.436455 16.012799 0.673256 2.223709 0.817288 5.110778 9.928307 0.123560 5.005057 3.113955 0.034840 0.054400 -0.424520 17.951381 -11.644089 1.797407 -22.159796 -2.880749 -10.687575 0.175244 -5.326723 16.405857 0.059305 -4.239005 2.871256 0.209860 0.587230 0.030810 -3.679401 -2.219504 -6.578190 9.079986 -7.078492 -1.465469 -25.063037 -4.611225 -1.065408 11.358458 -18.991120 -13.067201 -32.627229 -1.765372 7.578589 0.127550 -12.940520 -9.544420 -2.573071 9.958750 6.473310 -68.473829 12.881225 -11.692081 -23.123306 -51.106326 6.523033 -3.578461 3.525830 -0.181740 0.201540 -0.377540 0.271690 -19.047199 10.852527 1.133284 -37.942326 0.716601 -7.699298 -122.686344 22.228001 -37.529360 2.877226 -2.249561 -0.142230 0.348190 0.183590 0.279200 
-0.875580 18.681210 2.773900 3.706697 27.505664 -2.255476 -15.284248 14.121833 2.463867 16.656970 0.504723 1.625909 0.451910 5.121950 9.408093 0.084435 5.000579 3.107617 0.056860 0.091760 -0.410390 17.948715 -11.673818 1.767154 -21.900759 -2.823563 -10.543244 -0.240122 -5.225017 16.627543 0.056220 -4.247870 2.870091 0.247350 0.592000 0.030240 -3.677637 -2.088151 -6.585808 9.083580 -6.947575 -1.295569 -24.681840 -4.531855 -1.054685 11.333363 -18.778935 -12.595098 -31.625161 -1.712451 7.512072 -0.123720 -12.516810 -9.816530 -3.041577 10.395109 6.036713 -67.921722 12.777100 -11.415421 -23.526994 -50.919695 6.723752 -3.607735 3.513403 -0.188050 0.218950 -0.379540 0.273730 -18.733462 10.264621 0.995389 -38.062230 1.307677 -7.674490 -122.308416 21.824376 -36.526921 2.858151 -2.234366 -0.150330 0.363120 0.178520 0.271960 
-0.910490 18.657360 2.850910 2.840362 28.446965 -2.501638 -15.295978 13.963293 2.504177 18.219137 0.181546 0.267501 -0.622163 5.272223 8.747136 -0.048836 5.075826 3.055328 0.150550 0.199190 -0.291100 17.944850 -11.682103 1.735916 -21.756128 -2.722262 -9.965583 -0.209153 -5.248260 16.652294 0.016190 -4.324603 2.824193 0.357830 0.571510 0.046880 -3.653073 -1.795912 -6.586757 8.625062 -6.646082 -1.027429 -23.415652 -4.411574 -0.873902 11.067444 -18.285504 -11.251636 -29.400693 -1.761893 6.985955 -2.423180 -11.082070 -11.304530 -4.664740 11.155660 5.113668 -66.130996 12.700061 -10.829927 -24.837876 -50.803923 7.299860 -3.682797 3.459960 -0.166760 0.258540 -0.355150 0.264110 -17.074467 8.812005 0.431009 -39.241174 2.969371 -7.621626 -122.080507 20.942565 -34.704709 2.767962 -2.170258 -0.179210 0.405100 0.148930 0.216710 
-0.959060 18.626960 2.956790 3.065415 28.679592 -1.858892 -15.289844 13.716307 2.603136 19.516323 0.128788 -1.030271 -3.233982 5.820386 8.028867 -0.074724 5.256321 2.978520 0.116190 0.149510 -0.270700 17.969128 -11.635430 1.729154 -22.847116 -2.658304 -10.100657 0.469209 -5.543427 16.694959 0.020250 -4.440162 2.772983 0.345810 0.577710 0.051600 -3.659030 -1.515271 -6.671239 7.527211 -5.632974 -0.833615 -23.184393 -3.719797 -1.527994 10.905831 -17.797194 -10.466680 -27.520348 -3.205142 7.637651 -4.147460 -10.859950 -10.774530 -5.458003 11.769505 4.084948 -62.046269 12.792787 -9.942084 -27.467420 -48.490124 8.245983 -3.761253 3.414963 -0.158090 0.292300 -0.365270 0.233650 -16.238103 7.911115 0.357142 -39.290837 1.610945 -7.191055 -122.854974 19.024936 -31.657302 2.791288 -2.129853 -0.211250 0.413160 0.171060 0.183370 
-0.989060 18.579290 3.028360 3.009197 28.537463 -1.664308 -15.283037 13.742923 2.560057 18.882209 0.076762 -2.311485 -2.442217 5.453006 7.931555 -0.075695 4.993315 3.051393 0.127010 0.164830 -0.290970 17.968558 -11.663833 1.743135 -22.689688 -2.287948 -9.789646 -0.515516 -5.098715 16.103208 0.020253 -4.360836 2.805500 0.330470 0.555150 0.062590 -3.673739 -1.501169 -6.642738 7.569716 -5.010789 -0.366070 -22.353498 -2.965626 -1.261204 10.660116 -17.856146 -10.688904 -27.824527 -3.566922 7.672654 -3.419110 -11.746950 -10.639490 -4.737996 11.595988 4.554518 -63.873229 12.257192 -9.873527 -29.127022 -49.693801 9.195839 -3.710248 3.490055 -0.173600 0.268420 -0.355800 0.246350 -16.231917 8.006114 0.111190 -39.195326 0.420548 -6.810692 -122.878558 21.195424 -34.847726 2.784578 -2.177333 -0.169430 0.371710 0.156210 0.207390 
-1.031350 18.531540 3.102710 2.786869 28.816863 -1.411327 -15.280746 13.433224 2.665928 20.376728 0.059394 -4.095847 -5.594644 6.201987 8.115972 -0.098242 5.192124 2.921786 0.220700 0.271110 -0.177930 17.995432 -11.596393 1.775498 -23.330871 -2.038243 -9.684232 1.238330 -5.571886 16.104558 -0.031822 -4.496807 2.723052 0.398360 0.483350 0.078600 -3.671610 -1.090951 -6.724589 6.588260 -4.184734 0.105102 -21.542761 -2.246837 -0.892439 10.681869 -17.010503 -9.516445 -25.241214 -4.328418 8.445528 -4.694580 -11.019290 -11.976450 -7.080603 11.846074 3.419757 -60.262438 12.090493 -9.289651 -30.881117 -48.645461 9.851056 -3.716989 3.493602 -0.155170 0.259440 -0.304530 0.238620 -14.374372 6.993828 0.030233 -39.060804 1.550754 -6.541996 -122.079613 21.329098 -33.978061 2.750433 -2.134130 -0.149290 0.357100 0.100470 0.169510 
-1.025930 18.471780 3.157540 1.761924 28.706427 -1.342405 -15.243628 13.241904 2.729422 21.036855 -0.214561 -5.883532 -5.537696 5.847526 6.899800 -0.149988 5.052823 2.951031 0.231870 0.294580 -0.166560 18.044795 -11.614408 1.759833 -23.116765 -1.753150 -9.397809 1.072537 -5.480145 15.986865 -0.036087 -4.511151 2.722787 0.421100 0.486700 0.077940 -3.784330 -0.792990 -6.750601 8.332683 -3.510944 0.473347 -21.362687 -1.485625 -0.398641 10.736541 -16.615916 -9.122556 -23.957420 -4.856563 8.246078 -4.934790 -11.243930 -12.227850 -6.914666 12.624228 3.155900 -61.683313 11.762324 -9.327776 -32.694593 -50.179960 11.061967 -3.724657 3.493448 -0.161770 0.271890 -0.301960 0.240420 -14.780874 5.837641 -0.308392 -38.196126 0.926698 -6.291327 -122.650682 21.931948 -35.383294 2.753033 -2.151088 -0.153890 0.371210 0.093540 0.168190 
-1.026970 18.426740 3.203650 1.247856 28.330175 -0.890159 -15.199757 13.129908 2.804926 21.113228 -0.423032 -7.999803 -5.809457 5.666741 6.482773 -0.188162 4.898849 2.977038 0.216020 0.259970 -0.167810 18.077863 -11.642427 1.792760 -22.948750 -1.418688 -9.591819 1.471803 -5.573094 16.201399 -0.036623 -4.503320 2.723052 0.392980 0.478070 0.078150 -3.900741 -0.586809 -6.847320 9.795168 -2.712284 1.195141 -21.901561 -0.960910 -1.753584 11.037626 -16.482973 -8.640650 -23.666550 -4.984161 9.026153 -4.649050 -11.059260 -12.343180 -8.385962 13.211880 2.268294 -59.149220 12.024781 -8.938801 -33.054390 -48.130538 10.843664 -3.728869 3.468376 -0.134230 0.255230 -0.295460 0.232940 -14.198996 5.199263 -0.398718 -38.110497 0.015997 -5.744501 -122.343486 22.492083 -35.155657 2.793804 -2.116102 -0.160370 0.363400 0.102520 0.158450 
-1.045690 18.379610 3.243380 1.528754 27.689997 -0.031071 -15.159348 13.061521 2.791239 19.994267 -0.653162 -9.799825 -5.363982 5.226989 5.901529 -0.217071 4.603366 3.083701 0.194670 0.248460 -0.200520 18.120650 -11.653361 1.837685 -22.806965 -1.052202 -9.890090 1.336481 -5.348472 15.614495 -0.015331 -4.434341 2.762770 0.380160 0.502450 0.073000 -4.002328 -0.475210 -6.844064 10.613496 -2.700543 1.470811 -22.434238 -0.796559 -1.399953 10.829515 -16.515374 -8.723944 -23.497587 -5.086665 8.475273 -3.992510 -11.450560 -12.169190 -7.049563 13.783751 2.423268 -61.486111 12.025715 -10.025977 -30.957462 -48.914804 10.026567 -3.726353 3.455177 -0.155990 0.263920 -0.307270 0.242260 -15.122745 4.651551 -0.491620 -37.180144 -1.248562 -5.582033 -123.168267 23.299404 -37.225634 2.823632 -2.147986 -0.155900 0.371230 0.106380 0.179640 
-1.045020 18.347100 3.254320 1.791551 26.809667 0.279627 -15.096346 13.101534 2.700552 17.785195 -0.895780 -11.036572 -3.322801 4.421194 5.276753 -0.274619 4.123622 3.264043 0.151010 0.191100 -0.228050 18.167075 -11.770850 1.890738 -22.447721 -0.709878 -10.021570 0.458322 -4.983231 15.233308 0.005940 -4.329210 2.817487 0.331540 0.499440 0.063880 -4.178096 -0.318223 -6.816970 11.811209 -2.508764 2.187809 -23.498263 -0.365764 -0.666300 10.771299 -16.492239 -8.885801 -23.594068 -5.391744 9.041444 -3.751550 -11.669910 -11.925040 -7.886384 12.512550 2.731829 -60.439492 11.902889 -10.507477 -32.965440 -49.846445 10.887705 -3.698299 3.481419 -0.142590 0.250560 -0.310810 0.231210 -14.213363 5.501159 -0.140861 -36.744416 -2.544697 -5.738174 -122.991200 22.651365 -36.239269 2.833095 -2.129161 -0.159880 0.360160 0.122530 0.179050 
-1.079640 18.320010 3.288880 2.740186 26.513169 0.808831 -15.056070 12.833056 2.791162 17.489793 -1.025462 -12.009130 -4.934908 4.445845 4.120823 -0.274765 4.118052 3.246169 0.129920 0.150630 -0.214410 18.242035 -11.697260 1.907349 -23.802358 -0.531963 -10.063245 1.839464 -5.448026 15.353488 -0.020327 -4.457309 2.744967 0.293510 0.464250 0.066790 -4.303420 -0.089284 -6.872205 11.181703 -1.842011 2.681485 -24.473313 0.659245 1.126894 10.135773 -15.596806 -8.622554 -22.108109 -6.736294 10.673956 -3.595430 -12.261590 -12.490590 -9.757231 9.422763 3.172840 -54.425718 11.175780 -9.661607 -40.566629 -50.166564 14.231423 -3.665662 3.541544 -0.101460 0.221100 -0.283230 0.204820 -11.139029 6.852489 0.175690 -36.732401 -5.539139 -5.563293 -120.591950 21.648157 -32.627527 2.821329 -2.073719 -0.158220 0.349570 0.135520 0.160660 
-1.087600 18.286880 3.305040 2.564839 25.869461 1.021354 -15.019708 12.720230 2.886694 17.536807 -1.213168 -13.943623 -5.626532 4.464932 4.238701 -0.310852 4.025404 3.241446 0.146830 0.166880 -0.183350 18.276055 -11.715406 1.922814 -23.601920 -0.215049 -10.637561 2.156592 -5.490904 15.810813 -0.026894 -4.406965 2.749425 0.296580 0.426320 0.056280 -4.393875 0.094960 -6.958849 11.698303 -1.521150 3.845491 -24.478478 1.123355 1.443104 10.018432 -14.970592 -8.312369 -21.122445 -6.808388 11.773219 -3.173210 -12.097950 -13.515590 -10.832983 8.761115 3.129473 -51.690861 11.481271 -9.262228 -45.904933 -51.165353 17.088600 -3.630136 3.568530 -0.066410 0.190260 -0.254470 0.192880 -9.984966 6.711436 0.102941 -36.494861 -5.861182 -5.487229 -120.043027 21.638659 -32.118894 2.815660 -2.033367 -0.158360 0.351400 0.124760 0.143440 
-1.070850 18.254060 3.298900 2.637855 25.088533 1.607407 -14.999011 12.630870 2.963800 16.894004 -1.521216 -16.097669 -5.902288 4.332161 4.283621 -0.410531 3.900069 3.253279 0.162430 0.169800 -0.148540 18.303921 -11.677810 1.952519 -24.084820 0.158042 -11.682198 2.735602 -5.647662 16.342161 -0.026694 -4.392814 2.711360 0.316300 0.412220 0.061820 -4.435687 0.141506 -7.018033 12.257662 -1.664671 4.793263 -24.240599 1.223115 1.999349 9.813430 -14.588094 -8.187121 -20.446664 -6.566583 11.834235 -3.071980 -11.867630 -14.913160 -10.606012 8.191084 3.282677 -50.327480 11.441647 -8.718319 -50.634570 -50.663935 18.999789 -3.645792 3.558064 -0.022430 0.178560 -0.237070 0.172380 -9.816290 6.683606 -0.140165 -36.703407 -5.375613 -5.631588 -121.010935 22.997630 -35.046192 2.757911 -2.001044 -0.180440 0.373030 0.141890 0.115260 
